<mxfile host="app.diagrams.net" agent="Mozilla/5.0 (Windows NT 10.0; Win64; x64) AppleWebKit/537.36 (KHTML, like Gecko) Chrome/122.0.0.0 Safari/537.36" version="28.2.5">
  <diagram name="使用個案圖" id="aWD1JoPhpmEXVxEqfmJ2">
    <mxGraphModel dx="786" dy="451" grid="1" gridSize="10" guides="1" tooltips="1" connect="1" arrows="1" fold="1" page="1" pageScale="1" pageWidth="827" pageHeight="1169" math="0" shadow="0">
      <root>
        <mxCell id="0" />
        <mxCell id="1" parent="0" />
        <mxCell id="BpBgdT_9WnpJ_HFqouNj-1" value="繁忙疏於管理的人&lt;div&gt;&lt;br&gt;&lt;/div&gt;" style="shape=umlActor;verticalLabelPosition=bottom;verticalAlign=top;html=1;outlineConnect=0;" vertex="1" parent="1">
          <mxGeometry x="210" y="340" width="30" height="60" as="geometry" />
        </mxCell>
        <mxCell id="BpBgdT_9WnpJ_HFqouNj-2" value="管理會員" style="ellipse;whiteSpace=wrap;html=1;" vertex="1" parent="1">
          <mxGeometry x="310" y="260" width="100" height="70" as="geometry" />
        </mxCell>
        <mxCell id="BpBgdT_9WnpJ_HFqouNj-3" value="建立日程" style="ellipse;whiteSpace=wrap;html=1;" vertex="1" parent="1">
          <mxGeometry x="350" y="390" width="110" height="70" as="geometry" />
        </mxCell>
        <mxCell id="BpBgdT_9WnpJ_HFqouNj-4" value="維護日程" style="ellipse;whiteSpace=wrap;html=1;" vertex="1" parent="1">
          <mxGeometry x="400" y="610" width="120" height="80" as="geometry" />
        </mxCell>
        <mxCell id="BpBgdT_9WnpJ_HFqouNj-5" value="資訊管理系統" style="shape=umlActor;verticalLabelPosition=bottom;verticalAlign=top;html=1;outlineConnect=0;" vertex="1" parent="1">
          <mxGeometry x="610" y="160" width="30" height="60" as="geometry" />
        </mxCell>
        <mxCell id="BpBgdT_9WnpJ_HFqouNj-6" value="" style="endArrow=none;html=1;rounded=0;entryX=0;entryY=0.5;entryDx=0;entryDy=0;" edge="1" parent="1" target="BpBgdT_9WnpJ_HFqouNj-3">
          <mxGeometry width="50" height="50" relative="1" as="geometry">
            <mxPoint x="240" y="380" as="sourcePoint" />
            <mxPoint x="290" y="330" as="targetPoint" />
          </mxGeometry>
        </mxCell>
        <mxCell id="BpBgdT_9WnpJ_HFqouNj-8" value="" style="endArrow=none;html=1;rounded=0;exitX=0;exitY=0;exitDx=0;exitDy=0;" edge="1" parent="1" source="BpBgdT_9WnpJ_HFqouNj-4">
          <mxGeometry width="50" height="50" relative="1" as="geometry">
            <mxPoint x="230" y="470" as="sourcePoint" />
            <mxPoint x="280" y="420" as="targetPoint" />
          </mxGeometry>
        </mxCell>
        <mxCell id="BpBgdT_9WnpJ_HFqouNj-9" value="&amp;lt;&amp;lt;extend&amp;gt;&amp;gt;" style="html=1;verticalAlign=bottom;labelBackgroundColor=none;endArrow=open;endFill=0;dashed=1;rounded=0;entryX=0.571;entryY=1.029;entryDx=0;entryDy=0;entryPerimeter=0;exitX=0.297;exitY=0.04;exitDx=0;exitDy=0;exitPerimeter=0;" edge="1" parent="1" source="BpBgdT_9WnpJ_HFqouNj-4" target="BpBgdT_9WnpJ_HFqouNj-3">
          <mxGeometry width="160" relative="1" as="geometry">
            <mxPoint x="390" y="520" as="sourcePoint" />
            <mxPoint x="550" y="520" as="targetPoint" />
          </mxGeometry>
        </mxCell>
        <mxCell id="BpBgdT_9WnpJ_HFqouNj-10" value="" style="endArrow=none;html=1;rounded=0;exitX=1;exitY=0.5;exitDx=0;exitDy=0;" edge="1" parent="1" source="BpBgdT_9WnpJ_HFqouNj-11">
          <mxGeometry width="50" height="50" relative="1" as="geometry">
            <mxPoint x="670" y="380" as="sourcePoint" />
            <mxPoint x="740" y="370" as="targetPoint" />
          </mxGeometry>
        </mxCell>
        <mxCell id="BpBgdT_9WnpJ_HFqouNj-11" value="推薦日程" style="ellipse;whiteSpace=wrap;html=1;" vertex="1" parent="1">
          <mxGeometry x="565" y="350" width="120" height="80" as="geometry" />
        </mxCell>
        <mxCell id="BpBgdT_9WnpJ_HFqouNj-12" value="&amp;lt;&amp;lt;extend&amp;gt;&amp;gt;" style="html=1;verticalAlign=bottom;labelBackgroundColor=none;endArrow=open;endFill=0;dashed=1;rounded=0;exitX=0.307;exitY=0.985;exitDx=0;exitDy=0;exitPerimeter=0;" edge="1" parent="1" source="BpBgdT_9WnpJ_HFqouNj-11" target="BpBgdT_9WnpJ_HFqouNj-4">
          <mxGeometry width="160" relative="1" as="geometry">
            <mxPoint x="582.76" y="370.00000000000006" as="sourcePoint" />
            <mxPoint x="480" y="582.8" as="targetPoint" />
          </mxGeometry>
        </mxCell>
        <mxCell id="BpBgdT_9WnpJ_HFqouNj-13" value="&amp;lt;&amp;lt;extend&amp;gt;&amp;gt;" style="html=1;verticalAlign=bottom;labelBackgroundColor=none;endArrow=open;endFill=0;dashed=1;rounded=0;exitX=0;exitY=0.5;exitDx=0;exitDy=0;entryX=1;entryY=0.5;entryDx=0;entryDy=0;" edge="1" parent="1" source="BpBgdT_9WnpJ_HFqouNj-11" target="BpBgdT_9WnpJ_HFqouNj-3">
          <mxGeometry width="160" relative="1" as="geometry">
            <mxPoint x="622" y="160" as="sourcePoint" />
            <mxPoint x="453" y="403" as="targetPoint" />
          </mxGeometry>
        </mxCell>
        <mxCell id="BpBgdT_9WnpJ_HFqouNj-14" value="Gemini API" style="shape=umlActor;verticalLabelPosition=bottom;verticalAlign=top;html=1;outlineConnect=0;" vertex="1" parent="1">
          <mxGeometry x="750" y="350" width="30" height="60" as="geometry" />
        </mxCell>
        <mxCell id="BpBgdT_9WnpJ_HFqouNj-15" value="" style="endArrow=none;html=1;rounded=0;exitX=0.979;exitY=0.343;exitDx=0;exitDy=0;exitPerimeter=0;" edge="1" parent="1" source="BpBgdT_9WnpJ_HFqouNj-2">
          <mxGeometry width="50" height="50" relative="1" as="geometry">
            <mxPoint x="520" y="290" as="sourcePoint" />
            <mxPoint x="590" y="232" as="targetPoint" />
          </mxGeometry>
        </mxCell>
        <mxCell id="BpBgdT_9WnpJ_HFqouNj-16" value="管理日程" style="ellipse;whiteSpace=wrap;html=1;" vertex="1" parent="1">
          <mxGeometry x="400" y="150" width="100" height="70" as="geometry" />
        </mxCell>
        <mxCell id="BpBgdT_9WnpJ_HFqouNj-17" value="" style="endArrow=none;html=1;rounded=0;exitX=1.036;exitY=0.715;exitDx=0;exitDy=0;exitPerimeter=0;" edge="1" parent="1" source="BpBgdT_9WnpJ_HFqouNj-16">
          <mxGeometry width="50" height="50" relative="1" as="geometry">
            <mxPoint x="418" y="260" as="sourcePoint" />
            <mxPoint x="600" y="208" as="targetPoint" />
          </mxGeometry>
        </mxCell>
        <mxCell id="BpBgdT_9WnpJ_HFqouNj-19" value="&lt;span style=&quot;background-color: transparent;&quot;&gt;條件:當使用者想有個目標要達成但不知道怎麼排&lt;/span&gt;&lt;br&gt;&lt;div style=&quot;line-height: 100%;&quot;&gt;&lt;div style=&quot;&quot;&gt;&lt;span style=&quot;background-color: transparent;&quot;&gt;時機:推薦日程時&lt;/span&gt;&lt;/div&gt;&lt;/div&gt;&lt;div style=&quot;line-height: 100%;&quot;&gt;&lt;div style=&quot;&quot;&gt;&lt;div&gt;&lt;/div&gt;&lt;/div&gt;&lt;/div&gt;" style="shape=note2;boundedLbl=1;whiteSpace=wrap;html=1;size=25;verticalAlign=top;align=center;" vertex="1" parent="1">
          <mxGeometry x="400" y="300" width="160" height="80" as="geometry" />
        </mxCell>
        <mxCell id="BpBgdT_9WnpJ_HFqouNj-21" value="" style="endArrow=none;dashed=1;html=1;dashPattern=1 3;strokeWidth=2;rounded=0;entryX=0.304;entryY=1.042;entryDx=0;entryDy=0;entryPerimeter=0;" edge="1" parent="1" target="BpBgdT_9WnpJ_HFqouNj-19">
          <mxGeometry width="50" height="50" relative="1" as="geometry">
            <mxPoint x="489" y="410" as="sourcePoint" />
            <mxPoint x="540" y="440" as="targetPoint" />
          </mxGeometry>
        </mxCell>
      </root>
    </mxGraphModel>
  </diagram>
</mxfile>
